<svg xmlns="http://www.w3.org/2000/svg" xmlns:xlink="http://www.w3.org/1999/xlink" viewBox="0 0 168.14 211.2"><defs><style>.cls-1{fill:url(#linear-gradient);}</style><linearGradient id="linear-gradient" y1="105.6" x2="168.14" y2="105.6" gradientUnits="userSpaceOnUse"><stop offset="0" stop-color="#f0f"/><stop offset="1" stop-color="aqua"/></linearGradient></defs><title>Asset 4</title><g id="Layer_2" data-name="Layer 2"><g id="Layer_1-2" data-name="Layer 1"><path d="M157.88,81.5H21.53L84.07,20.8l41.29,40a2.51,2.51,0,0,0,1.77.72h14.2a2.55,2.55,0,0,0,1.78-4.38L98.42,13.84h0L84.07,0,69.74,13.84h0l-3.93,3.82h0L0,81.5V96.88H152.76v98.94H98.53V161.93c0-7.47-3.28-11.31-6.77-13.27a13.05,13.05,0,0,0-7.05-2h-1a12.18,12.18,0,0,0-8.39,2.78,13.21,13.21,0,0,0-4.76,7.41l0,0a6.48,6.48,0,0,0-.18,1.05c0,.29-.08.58-.11.87s0,.28,0,.28v.33c0,.15,0,.31,0,.46v36H10.76C4.82,195.82,0,199.26,0,203.51v7.69H168.14V81.5Z"/><rect x="26.66" y="114.82" width="32.29" height="32.29"/><polygon points="109.23 114.81 109.23 114.83 109.19 114.83 109.19 147.12 141.48 147.12 141.48 114.83 141.36 114.83 141.36 114.81 126.51 114.82 126.53 114.81 109.23 114.81"/><path class="cls-1" d="M157.88,81.5H21.53L84.07,20.8l41.29,40a2.51,2.51,0,0,0,1.77.72h14.2a2.55,2.55,0,0,0,1.78-4.38L98.42,13.84h0L84.07,0,69.74,13.84h0l-3.93,3.82h0L0,81.5V96.88H152.76v98.94H98.53V161.93c0-7.47-3.28-11.31-6.77-13.27a13.05,13.05,0,0,0-7.05-2h-1a12.18,12.18,0,0,0-8.39,2.78,13.21,13.21,0,0,0-4.76,7.41l0,0a6.48,6.48,0,0,0-.18,1.05c0,.29-.08.58-.11.87s0,.28,0,.28v.33c0,.15,0,.31,0,.46v36H10.76C4.82,195.82,0,199.26,0,203.51v7.69H168.14V81.5Z"/><rect class="cls-1" x="26.66" y="114.82" width="32.29" height="32.29"/><polygon class="cls-1" points="109.23 114.81 109.23 114.83 109.19 114.83 109.19 147.12 141.48 147.12 141.48 114.83 141.36 114.83 141.36 114.81 126.51 114.82 126.53 114.81 109.23 114.81"/></g></g></svg>