<svg xmlns="http://www.w3.org/2000/svg" xmlns:xlink="http://www.w3.org/1999/xlink" viewBox="0 0 1378.83 1571.51"><defs><style>.cls-1,.cls-5{fill:none;}.cls-2,.cls-6{fill:#fff;}.cls-3{clip-path:url(#clip-path);}.cls-4,.cls-5,.cls-6{stroke:#666;stroke-miterlimit:10;stroke-width:2.5px;}</style><clipPath id="clip-path"><rect class="cls-1" x="2.77" y="2" width="1371" height="1567"/></clipPath></defs><title>Asset 1</title><g id="Layer_2" data-name="Layer 2"><g id="Layer_5" data-name="Layer 5"><polyline class="cls-2" points="2.77 2 230.77 114 460.77 2 687.77 114 916.77 2 1145.77 114 1373.77 2 1373.77 1569.01 1144.77 1458.01 916.6 1569.51 688.16 1457.55 459.72 1569.51 231.77 1458.01 2.77 1569.01 2.77 2"/><g class="cls-3"><polygon class="cls-4" points="459.72 673.84 459.72 449.92 231.28 561.88 459.72 673.84"/><polygon class="cls-5" points="459.72 449.92 459.72 673.84 688.16 561.88 459.72 449.92"/><polygon class="cls-5" points="688.16 785.8 688.16 561.88 459.72 673.84 688.16 785.8"/><polygon class="cls-5" points="688.16 561.88 688.16 785.8 916.6 673.84 688.16 561.88"/><polygon class="cls-5" points="231.28 785.8 231.28 561.88 2.84 673.84 231.28 785.8"/><polygon class="cls-4" points="231.28 561.88 231.28 785.8 459.72 673.84 231.28 561.88"/><polygon class="cls-4" points="459.72 897.75 459.72 673.84 231.28 785.8 459.72 897.75"/><polygon class="cls-5" points="459.72 673.84 459.72 897.75 688.16 785.8 459.72 673.84"/><polygon class="cls-5" points="231.28 1009.71 231.28 785.8 2.84 897.75 231.28 1009.71"/><polygon class="cls-4" points="231.28 785.8 231.28 1009.71 459.72 897.75 231.28 785.8"/><polygon class="cls-5" points="688.16 1009.71 688.16 785.8 459.72 897.75 688.16 1009.71"/><polygon class="cls-5" points="688.16 785.8 688.16 1009.71 916.6 897.75 688.16 785.8"/><polygon class="cls-5" points="916.6 897.75 916.6 673.84 688.16 785.8 916.6 897.75"/><polygon class="cls-5" points="916.6 673.84 916.6 897.75 1145.04 785.8 916.6 673.84"/><polygon class="cls-4" points="459.72 1121.67 459.72 897.75 231.28 1009.71 459.72 1121.67"/><polygon class="cls-5" points="459.72 897.75 459.72 1121.67 688.16 1009.71 459.72 897.75"/><polygon class="cls-5" points="688.16 1233.63 688.16 1009.71 459.72 1121.67 688.16 1233.63"/><polygon class="cls-5" points="688.16 1009.71 688.16 1233.63 916.6 1121.67 688.16 1009.71"/><polygon class="cls-5" points="916.6 1121.67 916.6 897.75 688.16 1009.71 916.6 1121.67"/><polygon class="cls-5" points="916.6 897.75 916.6 1121.67 1145.04 1009.71 916.6 897.75"/><polygon points="917.07 1122.54 1145.04 1122.54 1145.04 1345.59 914.4 1343.72 917.07 1122.54"/><polygon class="cls-4" points="459.72 1345.59 459.72 1121.67 231.28 1233.63 459.72 1345.59"/><polygon class="cls-4" points="459.72 1121.67 459.72 1345.59 688.16 1233.63 459.72 1121.67"/><polygon class="cls-5" points="231.28 1233.63 231.28 1009.71 2.84 1121.67 231.28 1233.63"/><polygon class="cls-4" points="231.28 1009.71 231.28 1233.63 459.72 1121.67 231.28 1009.71"/><polygon class="cls-4" points="916.6 1345.59 916.6 1121.67 688.16 1233.63 916.6 1345.59"/><polygon class="cls-4" points="916.6 1121.67 916.6 1345.59 1145.04 1233.63 916.6 1121.67"/><polygon class="cls-5" points="2.84 897.75 2.84 1121.67 231.28 1009.71 2.84 897.75"/><polygon class="cls-5" points="688.16 1457.55 688.16 1233.63 459.72 1345.59 688.16 1457.55"/><polygon class="cls-5" points="688.16 1233.63 688.16 1457.55 916.6 1345.59 688.16 1233.63"/><polygon class="cls-5" points="231.28 1457.55 231.28 1233.63 2.84 1345.59 231.28 1457.55"/><polygon class="cls-5" points="231.28 1233.63 231.28 1457.55 459.72 1345.59 231.28 1233.63"/><polygon class="cls-5" points="2.84 1121.67 2.84 1345.59 231.28 1233.63 2.84 1121.67"/><polygon class="cls-5" points="231.28 561.88 231.28 337.96 2.84 449.92 231.28 561.88"/><polygon class="cls-4" points="231.28 337.96 231.28 561.88 459.72 449.92 231.28 337.96"/><polygon class="cls-5" points="916.6 673.84 916.6 449.92 688.16 561.88 916.6 673.84"/><polygon class="cls-5" points="916.6 449.92 916.6 673.84 1145.04 561.88 916.6 449.92"/><polygon class="cls-5" points="688.16 561.88 688.16 337.96 459.72 449.92 688.16 561.88"/><polygon class="cls-5" points="688.16 337.96 688.16 561.88 916.6 449.92 688.16 337.96"/><polygon class="cls-4" points="459.72 449.92 459.72 226 231.28 337.96 459.72 449.92"/><polygon class="cls-5" points="459.72 226 459.72 449.92 688.16 337.96 459.72 226"/><polygon class="cls-5" points="916.6 449.92 916.6 226 688.16 337.96 916.6 449.92"/><polygon class="cls-5" points="916.6 226 916.6 449.92 1145.04 337.96 916.6 226"/><polygon class="cls-5" points="2.84 673.84 2.84 897.75 231.28 785.8 2.84 673.84"/><polygon class="cls-5" points="2.84 449.92 2.84 673.84 231.28 561.88 2.84 449.92"/><polygon class="cls-5" points="2.84 226 2.84 449.92 231.28 337.96 2.84 226"/><polygon class="cls-5" points="1145.04 1457.55 1145.04 1233.63 916.6 1345.59 1145.04 1457.55"/><polygon class="cls-5" points="1145.04 1233.63 1145.04 1457.55 1373.47 1345.59 1145.04 1233.63"/><polygon class="cls-5" points="1145.04 1233.63 1145.04 1009.71 916.6 1121.67 1145.04 1233.63"/><polygon class="cls-5" points="1145.04 1009.71 1145.04 1233.63 1373.47 1121.67 1145.04 1009.71"/><polygon class="cls-5" points="1145.04 1009.71 1145.04 785.8 916.6 897.75 1145.04 1009.71"/><polygon class="cls-5" points="1145.04 785.8 1145.04 1009.71 1373.47 897.75 1145.04 785.8"/><polygon class="cls-5" points="1373.47 1345.59 1373.47 1121.67 1145.04 1233.63 1373.47 1345.59"/><polygon class="cls-5" points="1373.47 1121.67 1373.47 897.75 1145.04 1009.71 1373.47 1121.67"/><polygon class="cls-5" points="1145.04 785.8 1145.04 561.88 916.6 673.84 1145.04 785.8"/><polygon class="cls-5" points="1145.04 561.88 1145.04 785.8 1373.47 673.84 1145.04 561.88"/><polygon class="cls-5" points="1373.47 897.75 1373.47 673.84 1145.04 785.8 1373.47 897.75"/><polygon class="cls-5" points="1145.04 561.88 1145.04 337.96 916.6 449.92 1145.04 561.88"/><polygon class="cls-5" points="1145.04 337.96 1145.04 561.88 1373.47 449.92 1145.04 337.96"/><polygon class="cls-5" points="1373.47 673.84 1373.47 449.92 1145.04 561.88 1373.47 673.84"/><polygon class="cls-5" points="1373.47 449.92 1373.47 226 1145.04 337.96 1373.47 449.92"/><polygon class="cls-5" points="2.84 1345.59 2.84 1569.51 231.28 1457.55 2.84 1345.59"/><polygon class="cls-5" points="459.72 1569.51 459.72 1345.59 231.28 1457.55 459.72 1569.51"/><polygon class="cls-5" points="459.72 1345.59 459.72 1569.51 688.16 1457.55 459.72 1345.59"/><polygon class="cls-5" points="916.6 1569.51 916.6 1345.59 688.16 1457.55 916.6 1569.51"/><polygon class="cls-5" points="916.6 1345.59 916.6 1569.51 1145.04 1457.55 916.6 1345.59"/><polygon class="cls-5" points="1373.47 1569.51 1373.47 1345.59 1145.04 1457.55 1373.47 1569.51"/><line class="cls-5" x1="2.84" y1="1121.67" x2="1373.47" y2="1121.67"/><line class="cls-5" x1="2.84" y1="897.75" x2="1373.47" y2="897.75"/><line class="cls-5" x1="2.84" y1="673.84" x2="1373.47" y2="673.84"/><line class="cls-5" x1="2.84" y1="449.92" x2="1373.47" y2="449.92"/><polyline class="cls-5" points="2.84 1345.59 1373.47 1345.59 1142.84 1231.76 914.4 1343.72"/><polygon class="cls-4" points="231.28 1233.63 231.28 1345.59 459.72 1345.59 231.28 1233.63"/><polygon class="cls-4" points="457.52 1343.72 916.6 1345.59 685.96 1231.76 457.52 1343.72"/><polygon class="cls-4" points="459.72 1121.67 916.6 1121.67 688.16 1233.63 459.72 1121.67"/><line class="cls-6" x1="688.16" y1="1457.55" x2="688.16" y2="337.96"/><path class="cls-5" d="M231.28,1457.55"/><polygon class="cls-5" points="1144.77 337.92 1144.77 114 916.34 225.96 1144.77 337.92"/><polygon class="cls-5" points="1144.77 114 1144.77 337.92 1373.21 225.96 1144.77 114"/><polygon class="cls-5" points="687.77 337.92 687.77 114 459.33 225.96 687.77 337.92"/><polygon class="cls-5" points="687.77 114 687.77 337.92 916.21 225.96 687.77 114"/><polygon class="cls-5" points="231.77 337.92 231.77 114 3.33 225.96 231.77 337.92"/><polygon class="cls-4" points="231.77 114 231.77 337.92 460.21 225.96 231.77 114"/><polygon class="cls-5" points="459.77 225.92 459.77 2 231.34 113.96 459.77 225.92"/><polygon class="cls-5" points="460.77 2 460.77 225.92 689.21 113.96 460.77 2"/><polygon class="cls-5" points="916.77 225.92 916.77 2 688.34 113.96 916.77 225.92"/><polygon class="cls-5" points="916.77 2 916.77 225.92 1145.21 113.96 916.77 2"/><polygon class="cls-5" points="2.77 2 2.77 225.92 231.21 113.96 2.77 2"/><polygon class="cls-5" points="1373.77 225.92 1373.77 2 1145.34 113.96 1373.77 225.92"/></g></g></g></svg>