<svg xmlns="http://www.w3.org/2000/svg" xmlns:xlink="http://www.w3.org/1999/xlink" viewBox="0 0 519.28 513.96"><defs><style>.cls-1{fill:none;}.cls-2{clip-path:url(#clip-path);}.cls-3{fill:#896eff;}.cls-4{fill:#d72cff;}.cls-5{fill:#b059ff;}.cls-6{fill:#c43eff;}.cls-7{fill:#e617ff;}.cls-8{fill:#f0f;}.cls-9{fill:#6295ff;}.cls-10{fill:#7d84ff;}.cls-11{fill:aqua;}.cls-12{fill:#3bc7ff;}.cls-13{fill:#19ebff;}.cls-14{fill:#3ad4ff;}.cls-15{fill:#49b8ff;}.cls-16{fill:#5ba6ff;}</style><clipPath id="clip-path"><path class="cls-1" d="M421.57,136.79h0L259.64,16.61,97.7,136.79V378.28h1.5L259.64,497.35,420.07,378.28h1.5Zm-200.93,148V418.59l-69.88-51.86V147.23l69.88-51.87V232.14h78V95.36l69.88,51.87v219.5l-69.88,51.86V284.74Z"/></clipPath></defs><title>Asset 5</title><g id="Layer_2" data-name="Layer 2"><g id="Layer_1-2" data-name="Layer 1"><g class="cls-2"><g id="Layer_2-2" data-name="Layer 2"><g id="Layer_1-2-2" data-name="Layer 1-2"><polygon class="cls-3" points="148.36 256.97 185.46 321.22 222.55 256.97 148.36 256.97"/><polygon class="cls-4" points="111.27 192.74 111.27 192.74 74.19 256.97 148.36 256.97 111.27 192.74"/><polygon class="cls-5" points="222.55 256.97 185.46 192.74 185.46 192.74 148.36 256.97 222.55 256.97"/><polygon class="cls-6" points="185.46 192.74 111.27 192.74 148.36 256.97 185.46 192.74"/><polygon class="cls-6" points="74.19 256.97 111.27 321.22 148.36 256.97 74.19 256.97"/><polygon class="cls-5" points="111.27 321.22 111.27 321.22 185.46 321.22 185.46 321.22 148.36 256.97 111.27 321.22"/><polygon class="cls-7" points="37.09 192.74 74.19 256.97 111.27 192.74 37.09 192.74"/><polygon class="cls-8" points="111.27 192.74 74.19 128.49 74.19 128.49 37.09 192.74 111.27 192.74"/><polygon class="cls-8" points="0 256.97 0 256.97 74.19 256.97 74.19 256.97 37.09 192.74 0 256.97"/><polygon class="cls-6" points="37.09 321.22 74.19 385.47 111.27 321.22 37.09 321.22"/><polygon class="cls-4" points="111.27 321.22 74.19 256.97 74.19 256.97 37.09 321.22 111.27 321.22"/><polygon class="cls-7" points="74.19 256.97 0 256.97 37.09 321.22 74.19 256.97"/><polygon class="cls-9" points="148.36 385.47 185.46 449.71 222.55 385.47 148.36 385.47"/><polygon class="cls-5" points="111.27 321.22 111.27 321.22 74.19 385.47 148.36 385.47 111.27 321.22"/><polygon class="cls-10" points="222.55 385.47 185.46 321.22 185.46 321.22 148.36 385.47 222.55 385.47"/><polygon class="cls-3" points="185.46 321.22 111.27 321.22 148.36 385.47 185.46 321.22"/><polygon class="cls-3" points="74.19 385.47 111.27 449.71 148.36 385.47 74.19 385.47"/><polygon class="cls-10" points="111.27 449.71 111.27 449.71 185.46 449.71 185.46 449.71 148.36 385.47 111.27 449.71"/><polygon class="cls-11" points="370.92 385.47 408 449.71 445.09 385.47 370.92 385.47"/><polygon class="cls-12" points="333.82 321.22 333.82 321.22 296.73 385.47 370.92 385.47 333.82 321.22"/><polygon class="cls-13" points="445.09 385.47 408 321.22 408 321.22 370.92 385.47 445.09 385.47"/><polygon class="cls-14" points="408 321.22 333.82 321.22 370.92 385.47 408 321.22"/><polygon class="cls-14" points="296.73 385.47 333.82 449.71 370.92 385.47 296.73 385.47"/><polygon class="cls-13" points="333.82 449.71 333.82 449.71 408 449.71 408 449.71 370.92 385.47 333.82 449.71"/><polygon class="cls-15" points="259.64 321.22 296.73 385.47 333.82 321.22 259.64 321.22"/><polygon class="cls-10" points="222.55 256.97 222.55 256.97 185.46 321.22 259.64 321.22 222.55 256.97"/><polygon class="cls-16" points="333.82 321.22 296.73 256.97 296.73 256.97 259.64 321.22 333.82 321.22"/><polygon class="cls-9" points="296.73 256.97 222.55 256.97 259.64 321.22 296.73 256.97"/><polygon class="cls-9" points="185.46 321.22 222.55 385.47 259.64 321.22 185.46 321.22"/><polygon class="cls-16" points="222.55 385.47 222.55 385.47 296.73 385.47 296.73 385.47 259.64 321.22 222.55 385.47"/><polygon class="cls-14" points="259.64 449.71 296.73 513.96 333.82 449.71 259.64 449.71"/><polygon class="cls-16" points="222.55 385.47 222.55 385.47 185.46 449.71 259.64 449.71 222.55 385.47"/><polygon class="cls-12" points="333.82 449.71 296.73 385.47 296.73 385.47 259.64 449.71 333.82 449.71"/><polygon class="cls-15" points="296.73 385.47 222.55 385.47 259.64 449.71 296.73 385.47"/><polygon class="cls-15" points="185.46 449.71 222.55 513.96 259.64 449.71 185.46 449.71"/><polygon class="cls-12" points="222.55 513.96 222.55 513.96 296.73 513.96 296.73 513.96 259.64 449.71 222.55 513.96"/><polygon class="cls-6" points="148.36 128.49 185.46 192.74 222.55 128.49 148.36 128.49"/><polygon class="cls-8" points="111.27 64.25 111.27 64.25 74.19 128.49 148.36 128.49 111.27 64.25"/><polygon class="cls-4" points="222.55 128.49 185.46 64.25 185.46 64.25 148.36 128.49 222.55 128.49"/><polygon class="cls-7" points="185.46 64.25 111.27 64.25 148.36 128.49 185.46 64.25"/><polygon class="cls-7" points="74.19 128.49 111.27 192.74 148.36 128.49 74.19 128.49"/><polygon class="cls-4" points="111.27 192.74 111.27 192.74 185.46 192.74 185.46 192.74 148.36 128.49 111.27 192.74"/><polygon class="cls-15" points="370.92 128.49 408 192.74 445.09 128.49 370.92 128.49"/><polygon class="cls-10" points="333.82 64.25 333.82 64.25 296.73 128.49 370.92 128.49 333.82 64.25"/><polygon class="cls-16" points="445.09 128.49 408 64.25 408 64.25 370.92 128.49 445.09 128.49"/><polygon class="cls-9" points="408 64.25 333.82 64.25 370.92 128.49 408 64.25"/><polygon class="cls-9" points="296.73 128.49 333.82 192.74 370.92 128.49 296.73 128.49"/><polygon class="cls-16" points="333.82 192.74 333.82 192.74 408 192.74 408 192.74 370.92 128.49 333.82 192.74"/><polygon class="cls-3" points="259.64 64.25 296.73 128.49 333.82 64.25 259.64 64.25"/><polygon class="cls-4" points="222.55 0 222.55 0 185.46 64.25 259.64 64.25 222.55 0"/><polygon class="cls-5" points="333.82 64.25 296.73 0 296.73 0 259.64 64.25 333.82 64.25"/><polygon class="cls-6" points="296.73 0 222.55 0 259.64 64.25 296.73 0"/><polygon class="cls-6" points="185.46 64.25 222.55 128.49 259.64 64.25 185.46 64.25"/><polygon class="cls-5" points="222.55 128.49 222.55 128.49 296.73 128.49 296.73 128.49 259.64 64.25 222.55 128.49"/><polygon class="cls-9" points="259.64 192.74 296.73 256.97 333.82 192.74 259.64 192.74"/><polygon class="cls-5" points="222.55 128.49 222.55 128.49 185.46 192.74 259.64 192.74 222.55 128.49"/><polygon class="cls-10" points="333.82 192.74 296.73 128.49 296.73 128.49 259.64 192.74 333.82 192.74"/><polygon class="cls-3" points="296.73 128.49 222.55 128.49 259.64 192.74 296.73 128.49"/><polygon class="cls-3" points="185.46 192.74 222.55 256.97 259.64 192.74 185.46 192.74"/><polygon class="cls-10" points="222.55 256.97 222.55 256.97 296.73 256.97 296.73 256.97 259.64 192.74 222.55 256.97"/><polygon class="cls-14" points="370.92 256.97 408 321.22 445.09 256.97 370.92 256.97"/><polygon class="cls-16" points="333.82 192.74 333.82 192.74 296.73 256.97 370.92 256.97 333.82 192.74"/><polygon class="cls-12" points="445.09 256.97 408 192.74 408 192.74 370.92 256.97 445.09 256.97"/><polygon class="cls-15" points="408 192.74 333.82 192.74 370.92 256.97 408 192.74"/><polygon class="cls-15" points="296.73 256.97 333.82 321.22 370.92 256.97 296.73 256.97"/><polygon class="cls-12" points="333.82 321.22 333.82 321.22 408 321.22 408 321.22 370.92 256.97 333.82 321.22"/><polygon class="cls-12" points="445.09 128.49 445.09 128.49 408 192.74 482.19 192.74 445.09 128.49"/><polygon class="cls-14" points="408 192.74 445.09 256.97 482.19 192.74 408 192.74"/><polygon class="cls-13" points="445.09 256.97 445.09 256.97 519.28 256.97 519.28 256.97 482.19 192.74 445.09 256.97"/><polygon class="cls-13" points="445.09 256.97 445.09 256.97 408 321.22 482.19 321.22 445.09 256.97"/><polygon class="cls-11" points="519.28 256.97 445.09 256.97 482.19 321.22 519.28 256.97"/><polygon class="cls-11" points="408 321.22 445.09 385.47 482.19 321.22 408 321.22"/></g></g></g></g></g></svg>