<svg xmlns="http://www.w3.org/2000/svg" xmlns:xlink="http://www.w3.org/1999/xlink" viewBox="0 0 383.44 213.11"><defs><style>.cls-1{fill:url(#linear-gradient);}</style><linearGradient id="linear-gradient" y1="106.56" x2="383.44" y2="106.56" gradientUnits="userSpaceOnUse"><stop offset="0" stop-color="#f0f"/><stop offset="1" stop-color="aqua"/></linearGradient></defs><title>Asset 3</title><g id="Layer_2" data-name="Layer 2"><g id="Layer_1-2" data-name="Layer 1"><path class="cls-1" d="M375.36,39.54c4-4.71,9.06-12,7.91-18.2-.77-4.11-2.88-6.1-4.52-7a9.54,9.54,0,0,0-1.12-.54,10.59,10.59,0,0,0-.53-10A7.47,7.47,0,0,0,372,.17c-5.51-1.1-12.15,3.42-13.72,4.57A509.37,509.37,0,0,0,307.4,40.68a227.84,227.84,0,0,0-36.64,37.44,23.55,23.55,0,0,0-6.09.3l-136.56,25a22.79,22.79,0,0,0-3.13.81A225.49,225.49,0,0,0,78.29,78.84,508.89,508.89,0,0,0,19,59.51c-1.84-.64-9.52-3-14.45-.32A7.45,7.45,0,0,0,.81,64.12a10.57,10.57,0,0,0,2.44,9.69,10.41,10.41,0,0,0-.92.85C1.05,76.05-.38,78.57.09,82.73.81,89,7.78,94.47,13,97.78c-.07.11-.13.22-.19.33-1.92,3.5.41,7.69,1,8.67,2.47,4.34,7.45,8,10.85,10.18-.07.19-.12.38-.17.55-.92,3.71,1.74,7.43,2.28,8.14l.06.07c6.41,7.92,15.31,11.61,20.43,13.18-.12,3.75,3.09,7.39,4.12,8.46,8.4,8.71,27.31,15.09,29,15.66s22.19,8.7,37.14,11.06l3.68,20.09A23.14,23.14,0,0,0,144,213.11a22.89,22.89,0,0,0,4.18-.38l136.56-25a23.1,23.1,0,0,0,18.56-26.89l-3.39-18.5c13.22-6.93,28.85-19.38,30.31-20.55S347.84,109,353.3,98.23c.67-1.33,2.67-5.75,1.44-9.3,4.44-3,11.85-9.15,15.65-18.62l0-.08c.31-.84,1.75-5.17-.23-8.45-.09-.15-.2-.31-.32-.48,2.61-3.06,6.29-8,7.36-12.92.29-1.12,1.28-5.81-1.59-8.59ZM267,91a10.64,10.64,0,0,1,1.86-.17A10.33,10.33,0,0,1,279,99.29l1,5.31-73.22,42.68-83.61-13.93-1-5.31a10.31,10.31,0,0,1,8.28-12ZM82.71,157l-.19-.07c-.19-.07-19-6.27-26.51-14.05a10.5,10.5,0,0,1-2.29-3.53l7.4-4.32-8.7-1.47c-.13,0-12.73-2.24-20.56-11.86a5.75,5.75,0,0,1-1.14-2.61l.19-.1,5.93-2.73-5.79-3c-2.45-1.27-9.32-5.51-11.67-9.7l-.08-.14a6.24,6.24,0,0,1-.82-2.14,4.53,4.53,0,0,1,1.33-.15l13.37-.1-12-6C15.37,92.17,6.93,86.18,6.45,82A3.74,3.74,0,0,1,7,79a4.16,4.16,0,0,1,2.72-1L27,78.73,11.12,71.91S6.05,69.68,7,65.62a1.11,1.11,0,0,1,.61-.81c1.91-1,6.76-.15,9.42.78l.29.09A502.7,502.7,0,0,1,75.89,84.77a228.28,228.28,0,0,1,42.69,22.82,23.12,23.12,0,0,0-9,22.76l6.79,37C102,164.68,82.94,157.13,82.71,157ZM289,170.82a10.17,10.17,0,0,1-6.62,4.28l-136.56,25a10.32,10.32,0,0,1-12-8.28l-8.27-45.13,83.6,13.93L282.39,118l8.28,45.13A10.23,10.23,0,0,1,289,170.82Zm82-124,0,.16c-1,4.67-6.33,10.76-8.29,12.71l-4.65,4.59,6.48.85a1.07,1.07,0,0,1,.21,0,5.67,5.67,0,0,1-.32,2.82c-4.61,11.43-16,17.35-16.15,17.4l-7.89,4,8.36,2a10.63,10.63,0,0,1-1.15,4c-4.88,9.65-21,21.13-21.19,21.24l-.16.12c-.18.15-15,12-27.59,19L291.56,97A23,23,0,0,0,282,82.13a23.41,23.41,0,0,0-4.37-2.36,227.81,227.81,0,0,1,33.86-34.13,503.86,503.86,0,0,1,50.3-35.5L362,10c2.28-1.68,6.64-4,8.78-3.53a1.1,1.1,0,0,1,.82.59c2.09,3.53-1.9,7.08-2.06,7.22l-13.16,11.2,16.3-5.75a4.22,4.22,0,0,1,2.87.13A3.71,3.71,0,0,1,377,22.52c.77,4.14-5.53,12.35-10.25,16.85L357,48.62l12.84-3.87a4.71,4.71,0,0,1,1.31-.24A6.16,6.16,0,0,1,371,46.8Z"/></g></g></svg>