<svg xmlns="http://www.w3.org/2000/svg" xmlns:xlink="http://www.w3.org/1999/xlink" viewBox="0 0 229.12 212.81"><defs><style>.cls-1{fill:url(#linear-gradient);}.cls-2{fill:url(#linear-gradient-2);}.cls-3{fill:url(#linear-gradient-3);}</style><linearGradient id="linear-gradient" x1="-0.53" y1="106.4" x2="228.97" y2="106.4" gradientUnits="userSpaceOnUse"><stop offset="0" stop-color="#f0f"/><stop offset="1" stop-color="aqua"/></linearGradient><linearGradient id="linear-gradient-2" x1="-0.53" y1="73.62" x2="228.97" y2="73.62" xlink:href="#linear-gradient"/><linearGradient id="linear-gradient-3" x1="-0.53" y1="145.11" x2="228.97" y2="145.11" xlink:href="#linear-gradient"/></defs><title>Asset 2</title><g id="Layer_2" data-name="Layer 2"><g id="Layer_1-2" data-name="Layer 1"><path class="cls-1" d="M207.89,11,121.15,0H108L21.23,11A24.35,24.35,0,0,0,0,35.14V188.51a24.3,24.3,0,0,0,27.37,24.1l81.56-10.38h11.25l81.57,10.38a24.3,24.3,0,0,0,27.37-24.1V35.14A24.35,24.35,0,0,0,207.89,11ZM108.45,187H108l-82.52,10.5a9,9,0,0,1-10.17-9V35.14a9,9,0,0,1,7.89-8.95l85.29-10.85Zm105.39,1.55a9,9,0,0,1-10.16,9L121.63,187l-.48-.06h-.48V15.34L206,26.19a9,9,0,0,1,7.88,9Z"/><path class="cls-2" d="M93.17,41.11,28.1,49.87v56.27l65.07-8.77ZM87.06,92,34.21,99.15V55.22L87.06,48.1Z"/><path class="cls-3" d="M93.17,112.59,28.1,121.36v56.26l65.07-8.76Zm-6.11,50.92-52.85,7.12V126.7l52.85-7.12Z"/><path class="cls-2" d="M134.41,97.37l65.07,8.77V49.87l-65.07-8.76Zm6.11-49.27,52.85,7.12V99.15L140.52,92Z"/><path class="cls-3" d="M134.41,168.86l65.07,8.76V121.36l-65.07-8.77Zm6.11-49.28,52.85,7.12v43.93l-52.85-7.12Z"/></g></g></svg>